<?xml version="1.0" encoding="UTF-8"?>
<svg version="1.1" xmlns="http://www.w3.org/2000/svg" width="2000" height="1500">
<path d="M0 0 C660 0 1320 0 2000 0 C2000 495 2000 990 2000 1500 C1340 1500 680 1500 0 1500 C0 1005 0 510 0 0 Z " fill="#FEFEFE" transform="translate(0,0)"/>
<path d="M0 0 C1.04961914 0.33483398 2.09923828 0.66966797 3.18066406 1.01464844 C33.52715753 10.86319627 62.57965377 25.68588539 88 45 C88.59006836 45.44730469 89.18013672 45.89460938 89.78808594 46.35546875 C96.70595602 51.6297445 103.38563045 57.07693969 109.7890625 62.97265625 C111.73982911 64.7614334 113.72980395 66.47843119 115.75 68.1875 C124.85820102 76.15024775 133.40449809 84.83318314 140.88671875 94.33984375 C142.28274539 96.09713422 143.72301127 97.82026588 145.20703125 99.50390625 C158.20075587 114.30770197 168.90028183 131.56040855 178 149 C178.49306641 149.93271729 178.49306641 149.93271729 178.99609375 150.88427734 C191.98777199 175.58489516 201.29235774 201.28939864 207.375 228.5 C207.54444122 229.25209747 207.71388245 230.00419495 207.88845825 230.77908325 C211.52089386 247.04932606 213.54055739 263.32572626 214 280 C214.03399902 281.22686523 214.06799805 282.45373047 214.10302734 283.71777344 C214.59838033 303.68695473 213.68764969 322.88319804 210.53369141 342.63330078 C210.06100288 345.61517395 209.63756195 348.59849894 209.23046875 351.58984375 C205.59440718 376.34383532 196.78888274 401.50392497 186 424 C185.48808105 425.07386963 185.48808105 425.07386963 184.96582031 426.16943359 C183.03184629 430.19376519 181.02916325 434.17702159 178.96630859 438.13671875 C178.01054611 439.97966451 177.07649758 441.83242915 176.14453125 443.6875 C162.38924686 470.6968351 142.62533911 494.46708422 121.375 515.875 C120.51648437 516.74286133 119.65796875 517.61072266 118.7734375 518.50488281 C112.82464224 524.42420614 106.5710812 529.78566963 100 535 C98.79629833 535.97715464 97.59308151 536.95490726 96.390625 537.93359375 C50.11308979 575.03324226 -5.54922947 595.49587549 -64 603 C-64.72002197 603.10530029 -65.44004395 603.21060059 -66.18188477 603.3190918 C-74.04875823 604.37785871 -82.01495814 604.19948073 -89.9375 604.1875 C-91.13392624 604.18609512 -91.13392624 604.18609512 -92.35452271 604.18466187 C-125.43698306 604.10082306 -157.37141816 599.98568816 -189 590 C-189.89009766 589.71898437 -190.78019531 589.43796875 -191.69726562 589.1484375 C-250.41363457 570.26744132 -303.94663812 532.34105049 -341 483 C-341.4547168 482.40219727 -341.90943359 481.80439453 -342.37792969 481.18847656 C-349.50481368 471.80732276 -355.99878987 462.13817414 -362 452 C-362.4110498 451.30567871 -362.82209961 450.61135742 -363.24560547 449.89599609 C-382.14369711 417.64158042 -394.98239158 382.05447804 -400.61450195 345.11865234 C-400.9808531 342.82195595 -400.9808531 342.82195595 -402 340 C-404.40229013 324.59601087 -404.44183333 308.8607497 -404.4375 293.3125 C-404.43823517 292.15590881 -404.43897034 290.99931763 -404.43972778 289.80767822 C-404.39094042 260.43970901 -400.37023416 233.2258853 -392 205 C-391.76200684 204.18257324 -391.52401367 203.36514648 -391.27880859 202.52294922 C-382.26505015 172.04350352 -367.4902842 142.79333955 -349 117 C-348.58911133 116.42620605 -348.17822266 115.85241211 -347.75488281 115.26123047 C-340.00928889 104.53680756 -331.56411654 94.47146732 -322.56640625 84.7890625 C-320.42501785 82.46189155 -318.35657371 80.09941385 -316.3125 77.6875 C-313.51868493 74.47197699 -310.5158532 71.70483868 -307.265625 68.95703125 C-304.62144043 66.67300285 -302.10328634 64.27347453 -299.5625 61.875 C-230.56565872 -2.11239007 -130.805185 -25.62872794 0 0 Z " fill="#50A060" transform="translate(1089,278)"/>
<path d="M0 0 C1.04961914 0.33483398 2.09923828 0.66966797 3.18066406 1.01464844 C33.52715753 10.86319627 62.57965377 25.68588539 88 45 C88.59006836 45.44730469 89.18013672 45.89460938 89.78808594 46.35546875 C96.70595602 51.6297445 103.38563045 57.07693969 109.7890625 62.97265625 C111.73982911 64.7614334 113.72980395 66.47843119 115.75 68.1875 C124.85820102 76.15024775 133.40449809 84.83318314 140.88671875 94.33984375 C142.28274539 96.09713422 143.72301127 97.82026588 145.20703125 99.50390625 C158.20075587 114.30770197 168.90028183 131.56040855 178 149 C178.49306641 149.93271729 178.49306641 149.93271729 178.99609375 150.88427734 C191.98777199 175.58489516 201.29235774 201.28939864 207.375 228.5 C207.54444122 229.25209747 207.71388245 230.00419495 207.88845825 230.77908325 C211.52089386 247.04932606 213.54055739 263.32572626 214 280 C214.03399902 281.22686523 214.06799805 282.45373047 214.10302734 283.71777344 C214.59838033 303.68695473 213.68764969 322.88319804 210.53369141 342.63330078 C210.06100288 345.61517395 209.63756195 348.59849894 209.23046875 351.58984375 C205.59440718 376.34383532 196.78888274 401.50392497 186 424 C185.48808105 425.07386963 185.48808105 425.07386963 184.96582031 426.16943359 C183.03184629 430.19376519 181.02916325 434.17702159 178.96630859 438.13671875 C178.01054611 439.97966451 177.07649758 441.83242915 176.14453125 443.6875 C162.38924686 470.6968351 142.62533911 494.46708422 121.375 515.875 C120.51648437 516.74286133 119.65796875 517.61072266 118.7734375 518.50488281 C112.82464224 524.42420614 106.5710812 529.78566963 100 535 C98.79629833 535.97715464 97.59308151 536.95490726 96.390625 537.93359375 C50.11308979 575.03324226 -5.54922947 595.49587549 -64 603 C-64.72002197 603.10530029 -65.44004395 603.21060059 -66.18188477 603.3190918 C-74.04875823 604.37785871 -82.01495814 604.19948073 -89.9375 604.1875 C-91.13392624 604.18609512 -91.13392624 604.18609512 -92.35452271 604.18466187 C-125.43698306 604.10082306 -157.37141816 599.98568816 -189 590 C-189.89009766 589.71898437 -190.78019531 589.43796875 -191.69726562 589.1484375 C-250.41363457 570.26744132 -303.94663812 532.34105049 -341 483 C-341.4547168 482.40219727 -341.90943359 481.80439453 -342.37792969 481.18847656 C-349.50481368 471.80732276 -355.99878987 462.13817414 -362 452 C-362.4110498 451.30567871 -362.82209961 450.61135742 -363.24560547 449.89599609 C-382.14369711 417.64158042 -394.98239158 382.05447804 -400.61450195 345.11865234 C-400.9808531 342.82195595 -400.9808531 342.82195595 -402 340 C-404.40229013 324.59601087 -404.44183333 308.8607497 -404.4375 293.3125 C-404.43823517 292.15590881 -404.43897034 290.99931763 -404.43972778 289.80767822 C-404.39094042 260.43970901 -400.37023416 233.2258853 -392 205 C-391.76200684 204.18257324 -391.52401367 203.36514648 -391.27880859 202.52294922 C-382.26505015 172.04350352 -367.4902842 142.79333955 -349 117 C-348.58911133 116.42620605 -348.17822266 115.85241211 -347.75488281 115.26123047 C-340.00928889 104.53680756 -331.56411654 94.47146732 -322.56640625 84.7890625 C-320.42501785 82.46189155 -318.35657371 80.09941385 -316.3125 77.6875 C-313.51868493 74.47197699 -310.5158532 71.70483868 -307.265625 68.95703125 C-304.62144043 66.67300285 -302.10328634 64.27347453 -299.5625 61.875 C-230.56565872 -2.11239007 -130.805185 -25.62872794 0 0 Z M-141 50 C-141.87978516 50.17160645 -142.75957031 50.34321289 -143.66601562 50.52001953 C-183.49599585 58.60010435 -220.55446202 76.34833383 -252 102 C-252.55606934 102.45310547 -253.11213867 102.90621094 -253.68505859 103.37304688 C-266.70074549 114.06725454 -278.6653725 125.66927866 -289 139 C-289.77472656 139.95777344 -290.54945313 140.91554688 -291.34765625 141.90234375 C-318.52566862 176.05791238 -333.28287608 215.44996409 -341 258 C-341.18981445 258.95559814 -341.37962891 259.91119629 -341.57519531 260.89575195 C-343.47488626 271.39927572 -343.39482688 281.924385 -343.375 292.5625 C-343.37512085 293.5556723 -343.3752417 294.5488446 -343.37536621 295.57211304 C-343.34685725 312.05112175 -342.28776341 327.81477632 -339 344 C-338.86110352 344.73105957 -338.72220703 345.46211914 -338.57910156 346.21533203 C-337.66899324 350.90134779 -336.40436866 355.44358357 -335 360 C-334.68321289 361.04816895 -334.36642578 362.09633789 -334.04003906 363.17626953 C-322.15500608 402.01732069 -303.21164963 436.9869152 -274.73486328 466.21826172 C-273.05001729 467.94863127 -271.38203061 469.69404209 -269.71484375 471.44140625 C-262.88415406 478.5205223 -255.67133354 484.77367774 -247.79150391 490.65722656 C-245.99723786 492.00207029 -244.22281563 493.3702424 -242.44921875 494.7421875 C-192.10029725 533.22986836 -126.6959497 549.09065379 -64.18164062 541.34667969 C-54.66682436 540.06144758 -45.33012676 538.24811626 -36 536 C-34.7934375 535.72671875 -33.586875 535.4534375 -32.34375 535.171875 C0.22026045 527.2470052 30.60897863 511.42490321 57 491 C57.93972656 490.27425781 58.87945313 489.54851562 59.84765625 488.80078125 C113.10021892 446.37127255 144.74284214 384.52794308 152.6015625 317.3046875 C153.24731821 310.24177801 153.19917494 303.14889076 153.1875 296.0625 C153.18656342 295.32845947 153.18562683 294.59441895 153.18466187 293.83813477 C153.07255537 253.25889633 143.10088163 213.81981358 124 178 C123.65888184 177.35111816 123.31776367 176.70223633 122.96630859 176.03369141 C114.96584915 160.90101055 105.1796155 146.95678174 94 134 C93.35417969 133.24332031 92.70835937 132.48664063 92.04296875 131.70703125 C81.02215329 119.12686523 69.19099004 107.12705218 55.6796875 97.23095703 C54.0029241 96.00214293 52.34512847 94.75055492 50.6875 93.49609375 C29.66416984 77.8067213 5.74787925 66.44353401 -19 58 C-20.58167969 57.43539062 -20.58167969 57.43539062 -22.1953125 56.859375 C-29.43148539 54.42802091 -36.84340334 52.89728574 -44.3125 51.375 C-45.32006348 51.16858887 -46.32762695 50.96217773 -47.36572266 50.74951172 C-63.17481431 47.64419948 -78.42867408 46.62488288 -94.5 46.6875 C-95.95516525 46.69023422 -95.95516525 46.69023422 -97.43972778 46.69302368 C-112.14340541 46.73951836 -126.52739701 47.15815746 -141 50 Z " fill="#50A060" transform="translate(1089,278)"/>
<path d="M0 0 C0.76290344 0.31562393 1.52580688 0.63124786 2.31182861 0.95643616 C4.79831307 1.98790218 7.27841867 3.0336454 9.7578125 4.08203125 C13.25154038 5.55202046 16.74662283 7.01875963 20.2421875 8.484375 C21.12572906 8.85607819 22.00927063 9.22778137 22.91958618 9.61074829 C28.84598664 12.08934629 34.81668546 14.40628453 40.8359375 16.6484375 C43.15480933 17.53159463 45.47207319 18.41881744 47.78863525 19.30801392 C49.25342622 19.86016586 50.7239777 20.39729954 52.20013428 20.91830444 C54.2599949 21.64728665 56.29274519 22.42830524 58.328125 23.22265625 C59.47812988 23.64450195 60.62813477 24.06634766 61.81298828 24.50097656 C66.62798539 28.25524979 67.85170118 33.27067495 69.8828125 38.89453125 C70.73682228 41.01909261 71.59929575 43.14027035 72.4699707 45.25805664 C74.87333281 51.21378687 77.26769725 57.17313418 79.65942383 63.13354492 C80.68951713 65.69977976 81.72255893 68.26479864 82.75805664 70.82885742 C84.25986394 74.54765559 85.75329116 78.26976535 87.24609375 81.9921875 C87.71163162 83.14211685 88.17716949 84.2920462 88.65681458 85.4768219 C89.08113266 86.53900436 89.50545074 87.60118683 89.94262695 88.69555664 C90.31837357 89.62976944 90.69412018 90.56398224 91.08125305 91.52650452 C91.8828125 93.89453125 91.8828125 93.89453125 91.8828125 96.89453125 C86.6028125 96.89453125 81.3228125 96.89453125 75.8828125 96.89453125 C75.8828125 119.66453125 75.8828125 142.43453125 75.8828125 165.89453125 C57.0728125 165.89453125 38.2628125 165.89453125 18.8828125 165.89453125 C18.8828125 144.44453125 18.8828125 122.99453125 18.8828125 100.89453125 C-2.5671875 100.89453125 -24.0171875 100.89453125 -46.1171875 100.89453125 C-46.1171875 122.34453125 -46.1171875 143.79453125 -46.1171875 165.89453125 C-64.5971875 165.89453125 -83.0771875 165.89453125 -102.1171875 165.89453125 C-102.1171875 143.12453125 -102.1171875 120.35453125 -102.1171875 96.89453125 C-107.3971875 96.89453125 -112.6771875 96.89453125 -118.1171875 96.89453125 C-116.99218365 90.14450817 -116.99218365 90.14450817 -115.78540039 87.12182617 C-115.51705383 86.44133713 -115.24870728 85.76084808 -114.972229 85.05973816 C-114.68104187 84.33877457 -114.38985474 83.61781097 -114.08984375 82.875 C-113.78552429 82.10694534 -113.48120483 81.33889069 -113.16766357 80.54756165 C-112.17859203 78.05622372 -111.18046553 75.56868828 -110.1796875 73.08203125 C-108.79849183 69.64883296 -107.41796466 66.21537019 -106.0390625 62.78125 C-105.69764725 61.93283539 -105.35623199 61.08442078 -105.00447083 60.21029663 C-102.99497834 55.18773384 -101.10609554 50.14541137 -99.3203125 45.0390625 C-98.909021 43.89993408 -98.49772949 42.76080566 -98.07397461 41.5871582 C-97.33713631 39.53133691 -96.63208993 37.4636992 -95.96704102 35.38354492 C-94.08767417 30.26836729 -92.23343362 27.444103 -87.37109375 24.86328125 C-84.96348277 23.82648459 -82.55644444 22.85019503 -80.1171875 21.89453125 C-78.30527587 21.15232869 -76.49423235 20.408005 -74.68383789 19.66210938 C-68.2237168 17.02082485 -61.734382 14.45573249 -55.2421875 11.89453125 C-51.90740458 10.57474483 -48.57325015 9.2534062 -45.2399292 7.92993164 C-43.09780666 7.08007198 -40.95463261 6.23285745 -38.81036377 5.38842773 C-34.40065986 3.64383715 -30.01586161 1.88736916 -25.70996094 -0.1015625 C-25.07589325 -0.39192383 -24.44182556 -0.68228516 -23.7885437 -0.98144531 C-22.20975297 -1.71707642 -20.64290878 -2.47821324 -19.07763672 -3.2421875 C-12.31107624 -5.21534913 -6.19744148 -2.64436169 0 0 Z " fill="#C5DAB9" transform="translate(1046.1171875,523.10546875)"/>
<path d="M0 0 C10.84268335 7.82558885 18.02604458 20.4703624 20.24609375 33.62109375 C21.99737066 56.23037546 21.22493951 74.92340028 11.12988281 95.54394531 C7.43730724 103.33152086 4.51307356 111.47549542 1.4197998 119.51382446 C-0.50431868 124.50527598 -2.45498172 129.48633241 -4.40234375 134.46875 C-5.14951028 136.38423982 -5.89658269 138.29976635 -6.64355469 140.21533203 C-9.54328913 147.64698972 -12.45949342 155.07214888 -15.37890625 162.49609375 C-16.06146484 164.23234009 -16.06146484 164.23234009 -16.7578125 166.00366211 C-17.7562124 168.54292319 -18.75500277 171.08203073 -19.75390625 173.62109375 C-12.16390625 173.62109375 -4.57390625 173.62109375 3.24609375 173.62109375 C3.24609375 191.11109375 3.24609375 208.60109375 3.24609375 226.62109375 C-23.48390625 226.62109375 -50.21390625 226.62109375 -77.75390625 226.62109375 C-77.84431229 201.55115052 -77.91794983 176.48133994 -77.96115494 151.41127491 C-77.98175188 139.76997338 -78.00981762 128.12878057 -78.05566406 116.48754883 C-78.09561965 106.33724428 -78.12135989 96.1870185 -78.13026023 86.03663749 C-78.1354602 80.6655236 -78.14762214 75.29463498 -78.17682648 69.92359352 C-78.20413345 64.86010364 -78.21232052 59.79693017 -78.20633698 54.73337364 C-78.20743041 52.88276317 -78.21529268 51.03214127 -78.23072815 49.18159485 C-78.36642765 32.06171836 -75.57320045 17.59138029 -63.25390625 4.74609375 C-62.10581791 3.6839856 -60.93988756 2.64071569 -59.75390625 1.62109375 C-59.24601563 1.1725 -58.738125 0.72390625 -58.21484375 0.26171875 C-41.30413852 -13.23352385 -17.40592846 -11.1676437 0 0 Z " fill="#C5DAB9" transform="translate(923.75390625,462.37890625)"/>
<path d="M0 0 C10.72767829 -0.06982578 21.45530159 -0.1229756 32.18316174 -0.15543652 C37.1657285 -0.17102417 42.1481386 -0.19213486 47.13061523 -0.22631836 C51.94819469 -0.25915984 56.76562442 -0.27690476 61.58330727 -0.28463173 C63.41191269 -0.29013109 65.24051089 -0.30086863 67.06905174 -0.31719017 C93.46514696 -0.54321142 93.46514696 -0.54321142 103.34765625 6.3515625 C110.32428174 13.31169479 111.10189706 22.57459309 111.16459656 31.894104 C111.16570938 32.90358093 111.1668222 33.91305786 111.16796875 34.953125 C111.17296135 36.53622467 111.17296135 36.53622467 111.17805481 38.15130615 C111.18310664 40.38032599 111.18546367 42.60935335 111.18530273 44.83837891 C111.18748352 48.2244128 111.20564239 51.61011767 111.22460938 54.99609375 C111.22754491 57.16926973 111.22952863 59.34244724 111.23046875 61.515625 C111.23765427 62.517005 111.24483978 63.51838501 111.25224304 64.55010986 C111.21903718 74.92098925 110.23710972 84.27191124 103 92.1875 C91.91233827 98.88629563 80.50890882 98.53530318 68.015625 98.390625 C66.10464067 98.38314998 64.19364859 98.37746302 62.28265381 98.37347412 C57.29144537 98.358317 52.30071427 98.31912254 47.30969238 98.2746582 C42.20131891 98.23348958 37.09286711 98.21541731 31.984375 98.1953125 C21.98937543 98.15261719 11.99472765 98.08448839 2 98 C1.98969254 96.9344841 1.97938507 95.8689682 1.96876526 94.77116394 C1.87070012 84.69397886 1.76793724 74.61685099 1.66066074 64.53975964 C1.60566724 59.3599413 1.55228705 54.18011714 1.50268555 49.00024414 C1.45469165 43.99461164 1.40234013 38.98904141 1.34705925 33.98348427 C1.32679316 32.08069741 1.30805587 30.17789359 1.29092598 28.27507591 C1.17712109 14.11021886 1.17712109 14.11021886 0 0 Z " fill="#C6DBBA" transform="translate(761,1140)"/>
<path d="M0 0 C10.71040745 -0.06986495 21.42075966 -0.12299514 32.13134956 -0.15543652 C37.10604086 -0.17101578 42.08057493 -0.19211066 47.05517578 -0.22631836 C51.86627599 -0.25919037 56.67722607 -0.27691103 61.48843002 -0.28463173 C63.31341791 -0.29012572 65.13839866 -0.30085231 66.96332169 -0.31719017 C95.78689326 -0.56470358 95.78689326 -0.56470358 104 7 C110.32581933 14.90727416 110.30014463 22.68923227 110.265625 32.3984375 C110.26753845 33.58797028 110.2694519 34.77750305 110.27142334 36.00308228 C110.27278093 38.5127992 110.26911431 41.02252324 110.26074219 43.53222656 C110.25005596 47.35497993 110.26064255 51.17726135 110.2734375 55 C110.27211546 57.44531353 110.26955215 59.89062677 110.265625 62.3359375 C110.26967346 63.47058441 110.27372192 64.60523132 110.27789307 65.77426147 C110.21678095 76.22277418 109.43644012 84.40366458 101.875 92.1875 C91.87312859 98.49302763 80.35415187 97.38992353 68.9921875 97.29296875 C67.05592174 97.2873652 65.11965169 97.28309869 63.18338013 97.28010559 C58.11661794 97.2687166 53.05011865 97.23930127 47.98345947 97.20599365 C42.80150914 97.17516385 37.61951584 97.16157279 32.4375 97.14648438 C22.29155192 97.11442532 12.14579793 97.06330179 2 97 C1.98969254 95.96176086 1.97938507 94.92352173 1.96876526 93.8538208 C1.87063369 84.02712128 1.76786563 74.2004795 1.66066074 64.37387466 C1.60570369 59.32300065 1.55233016 54.27212065 1.50268555 49.22119141 C1.45463684 44.33874717 1.40228487 39.45636564 1.34705925 34.5739975 C1.32681751 32.71948578 1.30807685 30.864957 1.29092598 29.01041412 C1.20012152 19.29884508 1.03998366 9.66778964 0 0 Z " fill="#C6DBBA" transform="translate(1127,985)"/>
<path d="M0 0 C10.89 0 21.78 0 33 0 C39.26265001 12.48019007 45.52194168 24.96204855 51.77526855 37.44691277 C54.67879232 43.24350462 57.58380583 49.03933992 60.4921875 54.83349609 C63.29669586 60.42084804 66.0973384 66.01012162 68.89526367 71.60077286 C69.96563054 73.73779938 71.03740978 75.87411907 72.1105957 78.00973129 C73.60867926 80.9914683 75.10180844 83.9756354 76.59375 86.96044922 C77.04258545 87.85092957 77.4914209 88.74140991 77.95385742 89.65887451 C78.35773682 90.46938263 78.76161621 91.27989075 79.17773438 92.11495972 C79.53170288 92.82105314 79.88567139 93.52714657 80.25036621 94.25463676 C81 96 81 96 81 98 C72.75 98 64.5 98 56 98 C52.66666667 91.33333333 49.33333333 84.66666667 46 78 C16.3 77.505 16.3 77.505 -14 77 C-14.66 78.98 -15.32 80.96 -16 83 C-16.61071906 84.30735441 -17.25590342 85.59956435 -17.9453125 86.8671875 C-18.26516113 87.46128418 -18.58500977 88.05538086 -18.91455078 88.66748047 C-19.51372314 89.76020264 -19.51372314 89.76020264 -20.125 90.875 C-21.40375 93.22625 -22.6825 95.5775 -24 98 C-31.92 98 -39.84 98 -48 98 C-46.75857844 94.27573533 -45.72354226 91.1972291 -44.01315308 87.78579712 C-43.62335266 87.00344696 -43.23355225 86.2210968 -42.8319397 85.41503906 C-42.40899628 84.57634277 -41.98605286 83.73764648 -41.55029297 82.87353516 C-41.10133667 81.97533051 -40.65238037 81.07712585 -40.18981934 80.15170288 C-38.7110617 77.19557633 -37.22666389 74.24232083 -35.7421875 71.2890625 C-34.71336541 69.23515006 -33.68489738 67.18106022 -32.6567688 65.12680054 C-29.95431956 59.72952572 -27.24707331 54.33467105 -24.53881836 48.94030762 C-21.77427766 43.4317118 -19.0142842 37.92083886 -16.25390625 32.41015625 C-10.84038289 21.60453712 -5.42137044 10.80168425 0 0 Z " fill="#C6DBBA" transform="translate(1057,1140)"/>
<path d="M0 0 C1.39120471 0.00015906 2.78241534 0.00585033 4.17358398 0.01586914 C4.90463852 0.01728409 5.63569305 0.01869904 6.38890076 0.02015686 C8.73253406 0.02577131 11.07607313 0.03832617 13.41967773 0.05102539 C15.00496282 0.05603853 16.59024939 0.06060176 18.17553711 0.06469727 C22.06945383 0.07574542 25.96329979 0.09301967 29.85717773 0.11352539 C35.99225358 12.31426556 42.12090303 24.51820959 48.24129486 36.72632313 C51.08322606 42.39450811 53.92738616 48.06155172 56.77661133 53.72607422 C59.52451548 59.18936379 62.26660187 64.6555363 65.00462341 70.12378502 C66.05195537 72.21289201 67.10140428 74.30093905 68.15296936 76.38791847 C69.62178515 79.30387621 71.08313093 82.22346077 72.54272461 85.14404297 C72.98220932 86.01222656 73.42169403 86.88041016 73.87449646 87.77490234 C74.2699617 88.56995682 74.66542694 89.36501129 75.07287598 90.18415833 C75.41947014 90.87458127 75.7660643 91.56500422 76.12316132 92.27634907 C76.85717773 94.11352539 76.85717773 94.11352539 76.85717773 97.11352539 C68.60717773 97.11352539 60.35717773 97.11352539 51.85717773 97.11352539 C50.37217773 94.01977539 48.88717773 90.92602539 47.35717773 87.73852539 C46.65238281 86.27793701 46.65238281 86.27793701 45.93334961 84.7878418 C45.56790039 84.02133301 45.20245117 83.25482422 44.82592773 82.46508789 C44.44887695 81.67956543 44.07182617 80.89404297 43.68334961 80.0847168 C42.85717773 78.11352539 42.85717773 78.11352539 42.85717773 76.11352539 C23.05717773 76.11352539 3.25717773 76.11352539 -17.14282227 76.11352539 C-17.80282227 78.09352539 -18.46282227 80.07352539 -19.14282227 82.11352539 C-19.75354132 83.4208798 -20.39872569 84.71308974 -21.08813477 85.98071289 C-21.4079834 86.57480957 -21.72783203 87.16890625 -22.05737305 87.78100586 C-22.65654541 88.87372803 -22.65654541 88.87372803 -23.26782227 89.98852539 C-24.54657227 92.33977539 -25.82532227 94.69102539 -27.14282227 97.11352539 C-35.06282227 97.11352539 -42.98282227 97.11352539 -51.14282227 97.11352539 C-49.9122819 93.4219043 -48.89265425 90.36314703 -47.20066833 86.98197937 C-46.82072723 86.21790268 -46.44078613 85.45382599 -46.04933167 84.66659546 C-45.63731003 83.84817169 -45.22528839 83.02974792 -44.80078125 82.18652344 C-44.1443866 80.87088661 -44.1443866 80.87088661 -43.47473145 79.52867126 C-42.03335639 76.64222875 -40.58625897 73.7586982 -39.13891602 70.87524414 C-38.1349672 68.8685389 -37.13131432 66.86168558 -36.12794495 64.85469055 C-34.02803851 60.65643971 -31.92545538 56.45954433 -29.82080078 52.26367188 C-27.1174388 46.87398548 -24.41938923 41.4816616 -21.72314358 36.08841228 C-19.65305761 31.94851158 -17.58089261 27.80965452 -15.50801277 23.67115211 C-14.51193108 21.68217914 -13.51633955 19.69296062 -12.52123833 17.70349693 C-11.13466202 14.9325012 -9.74546509 12.16283607 -8.35546875 9.39355469 C-7.94142288 8.56500977 -7.52737701 7.73646484 -7.1007843 6.8828125 C-3.7071431 0.13390985 -3.7071431 0.13390985 0 0 Z " fill="#C6DBBA" transform="translate(999.142822265625,984.886474609375)"/>
<path d="M0 0 C1.39120471 0.00015906 2.78241534 0.00585033 4.17358398 0.01586914 C4.90463852 0.01728409 5.63569305 0.01869904 6.38890076 0.02015686 C8.73253406 0.02577131 11.07607313 0.03832617 13.41967773 0.05102539 C15.00496282 0.05603853 16.59024939 0.06060176 18.17553711 0.06469727 C22.06945075 0.0748961 25.96330095 0.09385572 29.85717773 0.11352539 C30.32663818 1.05366989 30.79609863 1.99381439 31.27978516 2.96244812 C35.3465787 11.10319372 39.42501096 19.23798286 43.51504517 27.36707592 C46.93755934 34.16980314 50.35444605 40.97534391 53.76913452 47.78200245 C56.05430701 52.33655488 58.34177298 56.88992806 60.6340332 61.44091797 C62.87244391 65.88524014 65.10504527 70.33243527 67.33358765 74.78171349 C68.17995514 76.46890808 69.02843334 78.15504556 69.87905884 79.84009743 C71.05961881 82.17955637 72.23270896 84.52261551 73.40405273 86.86669922 C73.75616318 87.56013428 74.10827362 88.25356934 74.47105408 88.96801758 C75.91776312 91.88028087 76.85717773 93.81540125 76.85717773 97.11352539 C68.60717773 97.11352539 60.35717773 97.11352539 51.85717773 97.11352539 C50.37217773 94.01977539 48.88717773 90.92602539 47.35717773 87.73852539 C46.65238281 86.27793701 46.65238281 86.27793701 45.93334961 84.7878418 C45.56790039 84.02133301 45.20245117 83.25482422 44.82592773 82.46508789 C44.44887695 81.67956543 44.07182617 80.89404297 43.68334961 80.0847168 C42.85717773 78.11352539 42.85717773 78.11352539 42.85717773 76.11352539 C23.05717773 76.11352539 3.25717773 76.11352539 -17.14282227 76.11352539 C-17.80282227 78.09352539 -18.46282227 80.07352539 -19.14282227 82.11352539 C-19.75354132 83.4208798 -20.39872569 84.71308974 -21.08813477 85.98071289 C-21.4079834 86.57480957 -21.72783203 87.16890625 -22.05737305 87.78100586 C-22.65654541 88.87372803 -22.65654541 88.87372803 -23.26782227 89.98852539 C-24.54657227 92.33977539 -25.82532227 94.69102539 -27.14282227 97.11352539 C-35.06282227 97.11352539 -42.98282227 97.11352539 -51.14282227 97.11352539 C-42.79809394 77.91071604 -33.35755043 59.27461897 -23.96777344 40.56781006 C-22.18292189 37.00904235 -20.40263558 33.44799955 -18.62239838 29.88692188 C-16.90661293 26.45562178 -15.18875277 23.02536403 -13.47016907 19.59546471 C-12.64992924 17.95816704 -11.83017359 16.32062673 -11.01091003 14.68284035 C-9.87655594 12.41628681 -8.7395865 10.15106582 -7.60180664 7.88623047 C-7.09541656 6.87277054 -7.09541656 6.87277054 -6.57879639 5.83883667 C-3.70643986 0.13388445 -3.70643986 0.13388445 0 0 Z " fill="#C6DBBA" transform="translate(744.142822265625,984.886474609375)"/>
<path d="M0 0 C24 0 24 0 32.0625 6.5 C34.12829172 8.97994204 36.08234601 11.42028993 38 14 C39.1531962 15.3450009 40.31704009 16.68110093 41.5 18 C42.0053125 18.598125 42.510625 19.19625 43.03125 19.8125 C45.89838676 22.99820751 48.95431879 25.98584758 52 29 C56.18848231 33.14512328 60.23290729 37.30384115 64.02734375 41.81640625 C66.3118105 44.34515261 68.72996067 46.70443748 71.16699219 49.08520508 C76.40986094 54.20854939 81.25589813 59.04253446 84.984375 65.42578125 C85.92276753 67.17352446 85.92276753 67.17352446 88 68 C88 45.56 88 23.12 88 0 C95.26 0 102.52 0 110 0 C110 32.01 110 64.02 110 97 C88 97 88 97 82.87890625 93.80859375 C81.13842773 91.71655273 81.13842773 91.71655273 79.5625 89.4375 C78.29767654 87.87224185 77.02936179 86.3097993 75.7578125 84.75 C75.14325195 83.9559375 74.52869141 83.161875 73.89550781 82.34375 C70.85813376 78.58810975 67.40984731 75.28631313 63.9375 71.9375 C60.35944834 68.44368336 56.89241669 64.92420096 53.6328125 61.12890625 C48.92966109 55.67959755 43.74058288 50.72631795 38.58398438 45.7109375 C34.36932218 41.5569436 30.62135993 37.43249616 27.29125977 32.53125 C25.97694061 30.70265633 25.97694061 30.70265633 23 30 C23 52.44 23 74.88 23 98 C15.74 98 8.48 98 1 98 C0.67 65.66 0.34 33.32 0 0 Z " fill="#C6DBBB" transform="translate(1309,985)"/>
<path d="M0 0 C0.99515625 0.78117187 1.9903125 1.56234375 3.015625 2.3671875 C20.38838416 16.31503128 37.52094076 32.2232697 51 50 C52.00896317 51.28239492 53.01951305 52.56354231 54.03125 53.84375 C92.74808778 103.18267957 118.98538631 166.77688447 120 230 C120.02578125 231.25006836 120.0515625 232.50013672 120.078125 233.78808594 C120.61784599 261.77688363 119.40101512 289.08622234 112.63525391 316.39746094 C112.02533989 318.89618632 111.46515336 321.40095424 110.91796875 323.9140625 C99.54195772 374.67566846 71.80352199 420.92827249 37 459 C36.14535156 459.9590625 35.29070313 460.918125 34.41015625 461.90625 C27.9957842 469.07580079 21.23295768 475.65942022 14 482 C13.08992188 482.79792969 12.17984375 483.59585938 11.2421875 484.41796875 C-3.16700979 496.71997145 -18.58419663 507.55982625 -35 517 C-35.83869629 517.48710449 -36.67739258 517.97420898 -37.54150391 518.47607422 C-85.03506523 545.88060738 -138.42050356 559.20027928 -193.125 559.25 C-193.90391602 559.25100708 -194.68283203 559.25201416 -195.48535156 559.25305176 C-216.46906161 559.23488867 -237.12378291 557.21406291 -257.60791016 552.54150391 C-260.06071171 551.98625652 -262.51947816 551.46684408 -264.98046875 550.94921875 C-288.07860411 545.94189979 -309.83850661 537.41935184 -331 527 C-331.85174805 526.58105469 -332.70349609 526.16210938 -333.58105469 525.73046875 C-352.39123335 516.37364873 -369.58792993 505.08577352 -386 492 C-387.00546875 491.20851563 -388.0109375 490.41703125 -389.046875 489.6015625 C-405.44824207 476.47098828 -421.06340105 461.55522803 -434 445 C-434.95054295 443.83642756 -435.90384331 442.67510416 -436.859375 441.515625 C-448.03754228 427.89139486 -457.35145207 413.33765922 -466 398 C-466.61875 396.91041992 -466.61875 396.91041992 -467.25 395.79882812 C-474.35684499 383.17307383 -479.81468645 370.07698892 -484.99169922 356.55810547 C-485.77461601 354.57180955 -486.63915571 352.61760215 -487.53515625 350.6796875 C-489.64948738 345.3684877 -491.03703914 339.8953392 -492.47949219 334.36865234 C-492.99368859 332.39917399 -493.51563494 330.43188648 -494.0390625 328.46484375 C-497.06341642 317.04310451 -499.94605589 305.64241147 -501.625 293.9375 C-501.74617187 293.14279297 -501.86734375 292.34808594 -501.9921875 291.52929688 C-503.50542337 281.25738602 -504.15594315 270.9984564 -504.203125 260.62109375 C-504.21018463 259.57881119 -504.21724426 258.53652863 -504.22451782 257.46266174 C-504.51525856 201.94176793 -495.46598426 150.48574908 -469 101 C-468.61875977 100.28150879 -468.23751953 99.56301758 -467.84472656 98.82275391 C-450.19110042 65.72753938 -425.89395074 34.10155634 -397 10 C-396.46165527 9.54786133 -395.92331055 9.09572266 -395.36865234 8.62988281 C-379.21934489 -4.88906138 -362.2634701 -16.51606199 -344 -27 C-343.02281006 -27.56412598 -343.02281006 -27.56412598 -342.02587891 -28.13964844 C-308.40448811 -47.36476586 -269.37930978 -59.45578048 -231 -64 C-229.75597412 -64.1544458 -229.75597412 -64.1544458 -228.48681641 -64.31201172 C-147.56576275 -74.07807978 -63.95793243 -50.29386457 0 0 Z M-228 -61 C-228.93553711 -60.90348145 -229.87107422 -60.80696289 -230.83496094 -60.70751953 C-252.44319228 -58.37180549 -273.47252776 -53.06846677 -294 -46 C-294.65129883 -45.77908691 -295.30259766 -45.55817383 -295.97363281 -45.33056641 C-334.89314352 -31.98246823 -370.21230156 -9.91883191 -400.5234375 17.74609375 C-402.20252205 19.2742196 -403.89580823 20.78685858 -405.6015625 22.28515625 C-410.09157119 26.23934819 -414.26188854 30.22610876 -418.11328125 34.8046875 C-420.36926427 37.42966153 -422.74887561 39.92079682 -425.125 42.4375 C-454.33149078 73.92971615 -474.68581851 113.48552605 -488 154 C-488.23315918 154.7027002 -488.46631836 155.40540039 -488.70654297 156.12939453 C-491.61656418 165.02195751 -493.75371211 174.02242624 -495.625 183.1875 C-495.81916504 184.12940186 -496.01333008 185.07130371 -496.21337891 186.04174805 C-496.86220489 189.35384233 -497.44147284 192.6714016 -498 196 C-498.12881561 196.75386993 -498.25763123 197.50773987 -498.39035034 198.28445435 C-500.77898695 212.60940855 -501.44343215 226.64008971 -501.33618164 241.15014648 C-501.31249494 244.56322851 -501.31566474 247.97552762 -501.32226562 251.38867188 C-501.29657322 272.04843838 -499.57304567 291.84649228 -495 312 C-494.71382812 313.28519531 -494.42765625 314.57039063 -494.1328125 315.89453125 C-493.17154506 319.95652419 -492.11973599 323.97924306 -491 328 C-490.7426709 328.92490234 -490.4853418 329.84980469 -490.22021484 330.80273438 C-478.10464096 373.62797013 -457.47505868 413.54182528 -428 447 C-427.36449219 447.73476563 -426.72898437 448.46953125 -426.07421875 449.2265625 C-424.39604655 451.1632118 -422.70177422 453.08406992 -421 455 C-419.93845703 456.20076172 -419.93845703 456.20076172 -418.85546875 457.42578125 C-411.67176414 465.49062169 -404.2135923 472.98976194 -396 480 C-395.08863281 480.80050781 -394.17726563 481.60101562 -393.23828125 482.42578125 C-360.84074639 510.67326176 -321.1246142 531.7223248 -280 544 C-278.93845703 544.32194336 -278.93845703 544.32194336 -277.85546875 544.65039062 C-237.66699839 556.63452007 -191.18569913 560.61409478 -149.64355469 553.44873047 C-146.92616935 552.98746761 -144.20439571 552.58580905 -141.4765625 552.19140625 C-87.14962567 543.98685327 -30.80205522 518.98848818 9.59375 481.23046875 C11.59324837 479.37703763 13.62568915 477.59435537 15.69140625 475.81640625 C27.41131501 465.59117488 38.55019955 454.36127066 48 442 C49.07065115 440.66614711 50.14379197 439.33429065 51.21875 438.00390625 C85.68674834 395.03297782 107.17600114 342.37043625 114.59326172 287.94433594 C114.93353501 285.48113314 115.30435739 283.02642884 115.69140625 280.5703125 C119.99621452 251.17726677 118.29387614 217.90011485 112 189 C111.77183594 187.9279834 111.54367187 186.8559668 111.30859375 185.75146484 C99.96952225 133.02335788 77.49833147 82.12055488 40.21484375 42.36328125 C38.32697126 40.34888468 36.53013714 38.29614125 34.75 36.1875 C26.91967603 27.18541733 18.23232563 18.55815391 9 11 C8.49984375 10.5860498 7.9996875 10.17209961 7.484375 9.74560547 C-24.59827433 -16.73545744 -60.35662479 -36.25912999 -100 -49 C-101.04865234 -49.33757324 -102.09730469 -49.67514648 -103.17773438 -50.02294922 C-143.66641086 -62.78290055 -185.96896107 -65.37281568 -228 -61 Z " fill="#C3D9B8" transform="translate(1186,326)"/>
<path d="M0 0 C33.99 0 67.98 0 103 0 C103 5.28 103 10.56 103 16 C76.27 16 49.54 16 22 16 C22 23.59 22 31.18 22 39 C42.46 39 62.92 39 84 39 C84 44.61 84 50.22 84 56 C63.54 56 43.08 56 22 56 C22 64.58 22 73.16 22 82 C49.06 82 76.12 82 104 82 C110 94 110 94 110 97 C107.18344272 97.93885243 105.48939608 98.12366869 102.57710266 98.12025452 C101.67266418 98.12162918 100.76822571 98.12300385 99.83638 98.12442017 C98.84663681 98.12082489 97.85689362 98.11722961 96.8371582 98.11352539 C95.79308807 98.11367142 94.74901794 98.11381744 93.67330933 98.1139679 C90.21577897 98.11327018 86.75830222 98.10548431 83.30078125 98.09765625 C80.9061028 98.09579157 78.51142396 98.0943679 76.116745 98.09336853 C69.80877635 98.08954728 63.50083066 98.07972031 57.19287109 98.06866455 C49.62712834 98.05664524 42.06137792 98.05204632 34.49562836 98.04621124 C22.99706959 98.03650838 11.49856123 98.01734904 0 98 C0 65.66 0 33.32 0 0 Z " fill="#C7DBBB" transform="translate(895,1140)"/>
<path d="M0 0 C1.00572556 -0.00503792 1.00572556 -0.00503792 2.0317688 -0.01017761 C4.24417994 -0.01966086 6.45651512 -0.02162964 8.66894531 -0.02270508 C10.21348094 -0.02592033 11.75801627 -0.0292846 13.30255127 -0.03279114 C16.54057521 -0.03877644 19.77857248 -0.04063174 23.01660156 -0.04003906 C27.15002818 -0.03993767 31.28328215 -0.05356894 35.41666794 -0.07081127 C38.60814181 -0.08197517 41.79957459 -0.0839569 44.99106598 -0.08342934 C46.51397545 -0.08460365 48.03688619 -0.08899437 49.55977631 -0.0967617 C66.6054674 -0.17553778 66.6054674 -0.17553778 73.24707031 3.14526367 C72.25707031 7.76526367 71.26707031 12.38526367 70.24707031 17.14526367 C68.14750977 17.12431641 66.04794922 17.10336914 63.88476562 17.08178711 C56.94783234 17.0155082 50.01088507 16.97132483 43.07371902 16.93801498 C38.86766054 16.91714006 34.66192646 16.88882467 30.45605469 16.84350586 C26.39711062 16.80004392 22.33847857 16.77612585 18.27931976 16.7657547 C16.73073158 16.75836388 15.18216048 16.74393115 13.63370514 16.72234344 C11.46441247 16.6933032 9.2964089 16.68930768 7.12695312 16.69116211 C5.89229309 16.68227966 4.65763306 16.67339722 3.38555908 16.66424561 C-0.35841346 17.23806268 -1.49640382 18.16083167 -3.75292969 21.14526367 C-4.71599867 24.03447062 -4.94852329 26.06774248 -5.00292969 29.08276367 C-5.02871094 29.93741211 -5.05449219 30.79206055 -5.08105469 31.67260742 C-4.68020016 34.69333264 -3.89105438 35.99269219 -1.75292969 38.14526367 C1.21491635 39.13004063 3.97223852 39.27891426 7.0847168 39.30297852 C8.52288002 39.31837173 8.52288002 39.31837173 9.99009705 39.33407593 C11.02235916 39.34137726 12.05462128 39.34867859 13.11816406 39.35620117 C15.32455138 39.3842943 17.53093148 39.41295889 19.73730469 39.44213867 C23.19945888 39.48318319 26.66148196 39.52008666 30.1237793 39.54663086 C62.8433708 39.81896153 62.8433708 39.81896153 71.24707031 47.14526367 C78.40947525 54.90453569 77.75264391 63.01446176 77.55175781 73.00854492 C77.19576891 81.18305048 75.3337957 86.51961652 69.30957031 92.14526367 C63.87399627 96.64068873 58.96292633 97.44091507 52.03198242 97.40405273 C50.81157509 97.40930969 50.81157509 97.40930969 49.56651306 97.41467285 C46.8857258 97.42345258 44.20520386 97.41765487 41.52441406 97.41088867 C39.65784149 97.41223627 37.79126925 97.4141776 35.92469788 97.41668701 C32.01674043 97.41963307 28.10887453 97.41535679 24.20092773 97.40600586 C19.19162949 97.39460374 14.18254538 97.40117889 9.17325497 97.41315079 C5.3205453 97.42037661 1.46788644 97.41807826 -2.38482475 97.4128952 C-4.23200951 97.41156112 -6.07919888 97.41319799 -7.92637825 97.41785431 C-10.5067887 97.42293225 -13.08685176 97.41519184 -15.66723633 97.40405273 C-16.43046204 97.4081012 -17.19368774 97.41214966 -17.9800415 97.4163208 C-21.72350664 97.38637757 -24.57586791 97.23651392 -27.75292969 95.14526367 C-26.61646325 91.45174775 -25.25654845 87.94295177 -23.67480469 84.42260742 C-23.31483398 83.61944092 -22.95486328 82.81627441 -22.58398438 81.98876953 C-22.30973633 81.3804126 -22.03548828 80.77205566 -21.75292969 80.14526367 C-20.85979065 80.15414612 -19.96665161 80.16302856 -19.04644775 80.17218018 C-10.63011225 80.25232301 -2.21390487 80.31322649 6.20272446 80.35251236 C10.52984645 80.37338871 14.8566532 80.40170679 19.18359375 80.44702148 C23.3592463 80.49047819 27.53459562 80.51440042 31.71045685 80.52477264 C33.30370101 80.53216439 34.89692855 80.54659888 36.49004364 80.5681839 C38.721592 80.59721694 40.95188695 80.60121993 43.18359375 80.59936523 C44.45378357 80.60824768 45.72397339 80.61713013 47.03265381 80.62628174 C50.81563123 80.06018196 51.94175601 79.12692155 54.24707031 76.14526367 C55.53373481 73.57193467 55.41531582 71.64303329 55.43457031 68.77026367 C55.44875 67.8137793 55.46292969 66.85729492 55.47753906 65.87182617 C55.23724482 63.02902306 54.87413535 61.47550824 53.24707031 59.14526367 C50.08366969 57.16037888 47.60152317 56.89088025 43.90283203 56.87402344 C42.83426971 56.86383682 41.7657074 56.85365021 40.6647644 56.84315491 C39.51372223 56.84101486 38.36268005 56.83887482 37.17675781 56.83666992 C34.72883889 56.81149817 32.28092227 56.78610033 29.83300781 56.76049805 C25.9821031 56.73182944 22.13123885 56.70780854 18.28027344 56.68896484 C14.55804983 56.66719606 10.83631147 56.62773453 7.11425781 56.58666992 C5.97536102 56.58655411 4.83646423 56.58643829 3.66305542 56.58631897 C-5.31676602 56.4761741 -13.99201563 55.33091397 -21.28417969 49.67260742 C-27.97201468 42.7179705 -28.18350558 33.47336733 -28.03417969 24.39916992 C-27.81166445 19.30913388 -26.58314776 15.39523048 -23.75292969 11.14526367 C-23.39070312 10.57549805 -23.02847656 10.00573242 -22.65527344 9.41870117 C-17.18567303 1.89104773 -8.77235436 0.02762297 0 0 Z " fill="#C6DBBA" transform="translate(859.7529296875,984.854736328125)"/>
<path d="M0 0 C0.71954361 -0.00350464 1.43908722 -0.00700928 2.18043518 -0.01062012 C4.54438098 -0.01937751 6.90802413 -0.01360838 9.27197266 -0.00683594 C10.92575131 -0.00818461 12.57952958 -0.01012682 14.23330688 -0.01263428 C17.69480169 -0.01557768 21.15619304 -0.01131426 24.61767578 -0.00195312 C29.03803464 0.00942306 33.45815011 0.00288863 37.87849998 -0.00909805 C41.29301764 -0.01635313 44.70747839 -0.01401172 48.12199783 -0.00884247 C49.75096287 -0.00751512 51.3799332 -0.00912139 53.00889206 -0.01380157 C55.29382595 -0.01892507 57.57837569 -0.01107501 59.86328125 0 C61.15978607 0.00159119 62.45629089 0.00318237 63.79208374 0.00482178 C67.97081318 0.28640157 71.5356715 1.13336152 75.56103516 2.25878906 C75.41841104 3.82158527 75.27178004 5.38401602 75.12353516 6.94628906 C75.00171875 8.25146484 75.00171875 8.25146484 74.87744141 9.58300781 C74.57005841 12.18248127 74.08853207 14.69639303 73.56103516 17.25878906 C72.2213266 17.25212723 72.2213266 17.25212723 70.85455322 17.24533081 C62.43817629 17.2052592 54.0218314 17.17480723 45.60538101 17.15516472 C41.27838319 17.14472685 36.95146418 17.13056756 32.62451172 17.10791016 C28.4488828 17.08618193 24.27332971 17.07422046 20.09764862 17.06903458 C18.50444088 17.06533879 16.9112373 17.05812187 15.31806183 17.04732895 C13.08678718 17.03281421 10.85582598 17.0308111 8.62451172 17.03173828 C7.3543219 17.02729706 6.08413208 17.02285583 4.77545166 17.01828003 C0.84145687 17.31206308 0.84145687 17.31206308 -2.43896484 19.25878906 C-4.26408358 22.67204279 -4.69898912 25.59410462 -4.74536133 29.42871094 C-4.76134872 30.43325317 -4.77733612 31.43779541 -4.79380798 32.47277832 C-4.79917068 33.54684937 -4.80453339 34.62092041 -4.81005859 35.72753906 C-4.81908707 36.84060425 -4.82811554 37.95366943 -4.8374176 39.10046387 C-4.85190552 41.4505749 -4.8608032 43.80072613 -4.86450195 46.15087891 C-4.87642287 49.74613057 -4.92564637 53.33967939 -4.97607422 56.93457031 C-4.98553593 59.2197182 -4.99277217 61.5048766 -4.99755859 63.79003906 C-5.01709091 64.86411011 -5.03662323 65.93818115 -5.05674744 67.0447998 C-5.05066971 68.04934204 -5.04459198 69.05388428 -5.03833008 70.08886719 C-5.04593605 71.40860535 -5.04593605 71.40860535 -5.05369568 72.75500488 C-4.13455855 76.49862871 -2.49126592 77.96293045 0.56103516 80.25878906 C3.27554488 80.67940243 5.32134572 80.80028532 8.01000977 80.66772461 C8.7423735 80.65239182 9.47473724 80.63705902 10.22929382 80.6212616 C11.813538 80.58559817 13.39756099 80.53870471 14.98118401 80.48178673 C17.49114987 80.39454252 19.99951432 80.34326848 22.51063538 80.30220032 C29.64608327 80.18015947 36.77936618 80.00216499 43.91235352 79.77905273 C48.2816345 79.64489615 52.64967469 79.5598595 57.02063179 79.50470924 C58.68241901 79.47373113 60.34396749 79.42378437 62.00459099 79.3543148 C67.01974334 79.14636455 71.66669626 79.05126699 76.56103516 80.25878906 C79.72423151 83.19160509 81.31614366 86.15107568 82.56103516 90.25878906 C82.56103516 90.91878906 82.56103516 91.57878906 82.56103516 92.25878906 C81.21247554 92.9162501 79.85679484 93.55910881 78.49853516 94.19628906 C77.74443359 94.5559375 76.99033203 94.91558594 76.21337891 95.28613281 C70.64009746 97.32994295 64.82939749 97.39367989 58.94848633 97.45166016 C57.8591404 97.46392639 57.8591404 97.46392639 56.74778748 97.47644043 C54.36653423 97.50106497 51.98533954 97.5177488 49.60400391 97.53222656 C48.78443018 97.53755024 47.96485645 97.54287392 47.12044716 97.54835892 C42.78416509 97.57498784 38.44791082 97.59439718 34.11157227 97.60888672 C30.54132474 97.62222644 26.97164866 97.65009421 23.40161133 97.69091797 C19.06868203 97.74044328 14.73627063 97.76503069 10.40307045 97.7721138 C8.7617456 97.778789 7.12043063 97.79391273 5.47926903 97.81800461 C-4.50186089 97.95620045 -13.01694569 97.63784485 -21.0349884 90.92196655 C-27.65684991 83.94617082 -27.88956781 74.47513034 -27.83740234 65.42675781 C-27.84027252 64.31375809 -27.8431427 63.20075836 -27.84609985 62.05403137 C-27.84813206 59.71008798 -27.84266158 57.3661273 -27.83007812 55.0222168 C-27.81405915 51.4672172 -27.829933 47.91336236 -27.84912109 44.35839844 C-27.84713762 42.06868242 -27.84329181 39.77896711 -27.83740234 37.48925781 C-27.84347504 36.4419902 -27.84954773 35.3947226 -27.85580444 34.3157196 C-27.76856183 24.98740346 -26.82060171 14.52676438 -20.43896484 7.25878906 C-14.20792285 1.83322323 -8.29845336 0.01019712 0 0 Z " fill="#C6DBBA" transform="translate(606.43896484375,984.7412109375)"/>
<path d="M0 0 C9.466875 -0.061875 18.93375 -0.12375 28.6875 -0.1875 C31.66998779 -0.21481201 34.65247559 -0.24212402 37.7253418 -0.27026367 C40.09162999 -0.27902624 42.45792271 -0.28667072 44.82421875 -0.29296875 C46.05096313 -0.30831665 47.27770752 -0.32366455 48.54162598 -0.33947754 C49.71858032 -0.33984009 50.89553467 -0.34020264 52.1081543 -0.34057617 C53.63704536 -0.35056892 53.63704536 -0.35056892 55.19682312 -0.36076355 C58.4981351 0.06410904 60.33453194 1.03202783 63 3 C65.18204072 6.27306109 65.2552752 7.23987873 65.2746582 11.03466797 C65.28419022 12.05938202 65.29372223 13.08409607 65.30354309 14.13986206 C65.30263168 15.24612946 65.30172028 16.35239685 65.30078125 17.4921875 C65.30506638 18.63027863 65.3093515 19.76836975 65.31376648 20.94094849 C65.31951334 23.35011123 65.32000744 25.75929133 65.31567383 28.16845703 C65.31251842 31.85349199 65.33595385 35.53772086 65.36132812 39.22265625 C65.36360153 41.56249899 65.36430442 43.90234388 65.36328125 46.2421875 C65.372491 47.34440643 65.38170074 48.44662537 65.39118958 49.58224487 C65.38496078 50.61326324 65.37873199 51.64428162 65.37231445 52.70654297 C65.37294388 53.61016571 65.3735733 54.51378845 65.3742218 55.4447937 C64.75833652 59.65009105 62.97673249 62.26530122 59.61474609 64.79418945 C54.14887411 66.61750039 48.88664118 66.36749881 43.1640625 66.29296875 C42.06924561 66.28994751 40.97442871 66.28692627 39.84643555 66.28381348 C35.77252725 66.2681652 31.69875376 66.22628131 27.625 66.1875 C18.50875 66.125625 9.3925 66.06375 0 66 C0 44.22 0 22.44 0 0 Z " fill="#FEFEFE" transform="translate(1150,1001)"/>
<path d="M0 0 C9.11625 -0.061875 18.2325 -0.12375 27.625 -0.1875 C30.49396973 -0.21481201 33.36293945 -0.24212402 36.31884766 -0.27026367 C38.60058166 -0.27902803 40.88232036 -0.28667209 43.1640625 -0.29296875 C44.34250732 -0.30831665 45.52095215 -0.32366455 46.73510742 -0.33947754 C57.55579967 -0.34293022 57.55579967 -0.34293022 62 3 C66.21046509 7.52643076 65.44988709 13.39236368 65.43359375 19.21484375 C65.4388356 20.30334122 65.44407745 21.39183868 65.44947815 22.51332092 C65.45589318 24.81217599 65.45456811 27.1110639 65.44604492 29.40991211 C65.43753838 32.92165765 65.46630012 36.43177458 65.49804688 39.94335938 C65.49965912 42.17968701 65.49908091 44.41601753 65.49609375 46.65234375 C65.50732773 47.69937973 65.51856171 48.74641571 65.53013611 49.82518005 C65.47459536 55.65367907 65.19579885 59.5572574 61 64 C57.32631296 65.82700968 54.3696295 66.24546108 50.29174805 66.22705078 C49.15539917 66.22680908 48.01905029 66.22656738 46.8482666 66.22631836 C45.66470581 66.21608643 44.48114502 66.20585449 43.26171875 66.1953125 C41.61798279 66.19229126 41.61798279 66.19229126 39.94104004 66.18920898 C35.85648397 66.17876291 31.77198768 66.15084033 27.6875 66.125 C13.9821875 66.063125 13.9821875 66.063125 0 66 C0 44.22 0 22.44 0 0 Z " fill="#FEFEFE" transform="translate(785,1156)"/>
<path d="M0 0 C2.30614962 0.54975868 4.61903757 1.04520669 6.93896484 1.53320312 C50.88659545 11.1559153 90.08148754 35.79891732 122.30224609 66.54882812 C123.17494141 67.38027344 124.04763672 68.21171875 124.94677734 69.06835938 C130.89128125 74.8667618 136.17613129 81.02227989 141.30224609 87.54882812 C142.09373047 88.53496094 142.88521484 89.52109375 143.70068359 90.53710938 C165.66913818 118.36150848 181.70196286 150.75256068 189.77587891 185.30175781 C190.45848074 188.21579645 191.18474232 191.11857469 191.91113281 194.02197266 C195.54964471 209.91167651 196.64481361 225.81102667 196.56298828 242.08325195 C196.55223331 244.61433759 196.56298798 247.14471627 196.57568359 249.67578125 C196.60993703 287.69502586 187.5061381 326.0695372 169.36328125 359.58740234 C168.22492022 361.69177245 167.1140009 363.80961018 166.00146484 365.92773438 C150.44482375 395.12234324 127.67690897 422.4572276 101.30224609 442.54882812 C100.73393066 442.98291992 100.16561523 443.41701172 99.58007812 443.86425781 C91.71374408 449.84191873 83.72160274 455.5065676 75.16503906 460.46826172 C73.84753428 461.2325181 72.53446475 462.00444455 71.22460938 462.78173828 C32.27649867 485.78916897 -10.25342375 495.7696078 -55.19775391 495.79882812 C-56.6013768 495.79984024 -56.6013768 495.79984024 -58.03335571 495.8008728 C-71.50885031 495.7854396 -84.47361307 495.31908113 -97.69775391 492.54882812 C-99.53344384 492.20375854 -101.36939499 491.86007642 -103.20556641 491.51757812 C-124.69342416 487.34039386 -145.06093444 480.169412 -164.69775391 470.54882812 C-165.4304248 470.19208008 -166.1630957 469.83533203 -166.91796875 469.46777344 C-198.07726927 454.11635785 -227.3218068 430.97814078 -248.69775391 403.54882812 C-249.49826172 402.54207031 -250.29876953 401.5353125 -251.12353516 400.49804688 C-268.44265241 378.5614011 -280.99799641 354.74089039 -290.69775391 328.54882812 C-290.99907227 327.76121094 -291.30039062 326.97359375 -291.61083984 326.16210938 C-306.1177612 288.09212022 -308.78962733 243.5476056 -301.69775391 203.54882812 C-301.55853516 202.71319336 -301.41931641 201.87755859 -301.27587891 201.01660156 C-295.04769985 164.00795424 -279.93869672 128.74067952 -257.69775391 98.54882812 C-257.28315918 97.97874023 -256.86856445 97.40865234 -256.44140625 96.82128906 C-250.88759854 89.21809769 -244.83416007 82.25034158 -238.36181641 75.42382812 C-235.71712527 72.64200826 -235.71712527 72.64200826 -233.56884766 69.87304688 C-231.86912105 67.76169545 -230.20325687 66.09880793 -228.13525391 64.36132812 C-224.90352793 61.60991372 -221.79277474 58.76552813 -218.69775391 55.86132812 C-207.08293383 45.30385719 -194.19859919 36.50428751 -180.69775391 28.54882812 C-179.98893066 28.12859375 -179.28010742 27.70835937 -178.54980469 27.27539062 C-167.32131331 20.67186707 -155.8384804 15.25603123 -143.69775391 10.54882812 C-143.00391602 10.27586914 -142.31007813 10.00291016 -141.59521484 9.72167969 C-122.00141313 2.0971556 -101.56518655 -2.24766931 -80.69775391 -4.45117188 C-79.51955078 -4.58265625 -78.34134766 -4.71414063 -77.12744141 -4.84960938 C-51.59934697 -7.17034523 -24.93491146 -6.06853474 0 0 Z M-99.69775391 0.54882812 C-100.57753906 0.72043457 -101.45732422 0.89204102 -102.36376953 1.06884766 C-142.19374975 9.14893248 -179.25221592 26.89716195 -210.69775391 52.54882812 C-211.25382324 53.00193359 -211.80989258 53.45503906 -212.3828125 53.921875 C-225.3984994 64.61608267 -237.36312641 76.21810678 -247.69775391 89.54882812 C-248.47248047 90.50660156 -249.24720703 91.464375 -250.04541016 92.45117188 C-277.22342252 126.60674051 -291.98062999 165.99879221 -299.69775391 208.54882812 C-299.88756836 209.50442627 -300.07738281 210.46002441 -300.27294922 211.44458008 C-302.17264016 221.94810385 -302.09258079 232.47321312 -302.07275391 243.11132812 C-302.07287476 244.10450043 -302.07299561 245.09767273 -302.07312012 246.12094116 C-302.04461116 262.59994987 -300.98551732 278.36360444 -297.69775391 294.54882812 C-297.55885742 295.2798877 -297.41996094 296.01094727 -297.27685547 296.76416016 C-296.36674714 301.45017592 -295.10212256 305.99241169 -293.69775391 310.54882812 C-293.3809668 311.59699707 -293.06417969 312.64516602 -292.73779297 313.72509766 C-280.85275998 352.56614881 -261.90940354 387.53574333 -233.43261719 416.76708984 C-231.74777119 418.4974594 -230.07978451 420.24287021 -228.41259766 421.99023438 C-221.58190796 429.06935043 -214.36908745 435.32250586 -206.48925781 441.20605469 C-204.69499177 442.55089841 -202.92056953 443.91907052 -201.14697266 445.29101562 C-150.79805115 483.77869648 -85.3937036 499.63948191 -22.87939453 491.89550781 C-13.36457826 490.61027571 -4.02788067 488.79694438 5.30224609 486.54882812 C6.50880859 486.27554687 7.71537109 486.00226563 8.95849609 485.72070312 C41.52250654 477.79583333 71.91122473 461.97373133 98.30224609 441.54882812 C99.24197266 440.82308594 100.18169922 440.09734375 101.14990234 439.34960938 C154.40246502 396.92010068 186.04508824 335.07677121 193.90380859 267.85351562 C194.5495643 260.79060613 194.50142104 253.69771888 194.48974609 246.61132812 C194.48880951 245.8772876 194.48787292 245.14324707 194.48690796 244.38696289 C194.37480146 203.80772446 184.40312772 164.3686417 165.30224609 128.54882812 C164.96112793 127.89994629 164.62000977 127.25106445 164.26855469 126.58251953 C156.26809524 111.44983867 146.4818616 97.50560986 135.30224609 84.54882812 C134.65642578 83.79214844 134.01060547 83.03546875 133.34521484 82.25585938 C122.32439939 69.67569336 110.49323614 57.67588031 96.98193359 47.77978516 C95.3051702 46.55097105 93.64737457 45.29938305 91.98974609 44.04492188 C70.96641594 28.35554943 47.05012535 16.99236213 22.30224609 8.54882812 C20.72056641 7.98421875 20.72056641 7.98421875 19.10693359 7.40820312 C11.8707607 4.97684903 4.45884275 3.44611387 -3.01025391 1.92382812 C-4.01781738 1.71741699 -5.02538086 1.51100586 -6.06347656 1.29833984 C-21.87256822 -1.8069724 -37.12642799 -2.82628899 -53.19775391 -2.76367188 C-54.65291916 -2.76093765 -54.65291916 -2.76093765 -56.13748169 -2.75814819 C-70.84115932 -2.71165351 -85.22515091 -2.29301442 -99.69775391 0.54882812 Z " fill="#B9D4B0" transform="translate(1047.69775390625,327.451171875)"/>
<path d="M0 0 C7.26 0 14.52 0 22 0 C22 27.06 22 54.12 22 82 C44.77 82 67.54 82 91 82 C97 94 97 94 97 97 C94.24682413 97.77617286 91.8076872 98.12407445 88.95037842 98.12025452 C87.75820269 98.12232076 87.75820269 98.12232076 86.5419426 98.12442875 C85.67570896 98.12083064 84.80947533 98.11723253 83.91699219 98.11352539 C82.9847646 98.11364593 82.052537 98.11376646 81.09206009 98.11389065 C78.07697405 98.11314476 75.06194997 98.10553124 72.046875 98.09765625 C70.18440785 98.09618583 68.3219403 98.09516573 66.45947266 98.09460449 C59.5563088 98.08936323 52.65315379 98.07540202 45.75 98.0625 C30.3225 98.041875 14.895 98.02125 -1 98 C-0.67 65.66 -0.34 33.32 0 0 Z " fill="#C6DBBA" transform="translate(1153,1140)"/>
<path d="M0 0 C7.26 0 14.52 0 22 0 C22 32.34 22 64.68 22 98 C14.74 98 7.48 98 0 98 C0 65.66 0 33.32 0 0 Z " fill="#C7DBBB" transform="translate(1260,985)"/>
<path d="M0 0 C3 1 3 1 4.15127563 2.69454956 C4.51466034 3.42940582 4.87804504 4.16426208 5.25244141 4.92138672 C5.66942291 5.75249969 6.08640442 6.58361267 6.51602173 7.43991089 C6.95675018 8.34403717 7.39747864 9.24816345 7.8515625 10.1796875 C8.31106293 11.10339142 8.77056335 12.02709534 9.24398804 12.97879028 C10.71371676 15.93964775 12.1692053 18.90727086 13.625 21.875 C14.61371112 23.86892232 15.60328385 25.86241765 16.59375 27.85546875 C18.40292069 31.50781465 20.21169332 35.16032074 22.00634766 38.81982422 C22.36814117 39.55627167 22.72993469 40.29271912 23.10269165 41.05148315 C24 43 24 43 25 46 C9.49 46 -6.02 46 -22 46 C-20.74069893 42.22209679 -19.6787495 39.10840091 -17.93701172 35.64697266 C-17.53674774 34.84659576 -17.13648376 34.04621887 -16.72409058 33.22158813 C-16.29693756 32.37760468 -15.86978455 31.53362122 -15.4296875 30.6640625 C-14.9885965 29.78471039 -14.54750549 28.90535828 -14.0930481 27.99935913 C-12.69079356 25.20599705 -11.28298584 22.41547689 -9.875 19.625 C-8.92020438 17.72544561 -7.96577325 15.82570797 -7.01171875 13.92578125 C-4.67869609 9.28172362 -2.3411143 4.63998335 0 0 Z " fill="#FDFDFC" transform="translate(1072,1155)"/>
<path d="M0 0 C3 1 3 1 4.15800476 2.70127869 C4.70760612 3.80808739 4.70760612 3.80808739 5.26831055 4.93725586 C5.68851974 5.77159653 6.10872894 6.60593719 6.54167175 7.46556091 C6.98553726 8.37282425 7.42940277 9.28008759 7.88671875 10.21484375 C8.5795269 11.60395714 8.5795269 11.60395714 9.28633118 13.02113342 C10.26175177 14.98172727 11.23234274 16.94473015 12.19848633 18.90991211 C13.68210431 21.92652903 15.18050514 24.93542746 16.68164062 27.94335938 C17.62587745 29.84591894 18.56926576 31.74889991 19.51171875 33.65234375 C20.18662605 35.01020241 20.18662605 35.01020241 20.87516785 36.39549255 C21.28592056 37.23298538 21.69667328 38.07047821 22.11987305 38.93334961 C22.48388718 39.67201767 22.84790131 40.41068573 23.22294617 41.17173767 C24 43 24 43 24 45 C8.82 45 -6.36 45 -22 45 C-20.76663291 41.29989872 -19.74269181 38.23513295 -18.04467773 34.84643555 C-17.6676622 34.08932785 -17.29064667 33.33222015 -16.90220642 32.5521698 C-16.29899315 31.35652153 -16.29899315 31.35652153 -15.68359375 30.13671875 C-15.26707047 29.3041304 -14.85054718 28.47154205 -14.42140198 27.61372375 C-13.54495818 25.8638451 -12.66658002 24.11493409 -11.78637695 22.36694336 C-10.43431753 19.68117826 -9.088765 16.99222827 -7.74414062 14.30273438 C-6.89100371 12.60137254 -6.03750101 10.90019407 -5.18359375 9.19921875 C-4.57734413 7.98838875 -4.57734413 7.98838875 -3.95884705 6.75309753 C-1.1160858 1.1160858 -1.1160858 1.1160858 0 0 Z " fill="#FEFEFE" transform="translate(1011,1000)"/>
<path d="M0 0 C3 1 3 1 4.15800476 2.70127869 C4.70760612 3.80808739 4.70760612 3.80808739 5.26831055 4.93725586 C5.68851974 5.77159653 6.10872894 6.60593719 6.54167175 7.46556091 C6.98553726 8.37282425 7.42940277 9.28008759 7.88671875 10.21484375 C8.5795269 11.60395714 8.5795269 11.60395714 9.28633118 13.02113342 C10.26175177 14.98172727 11.23234274 16.94473015 12.19848633 18.90991211 C13.68210431 21.92652903 15.18050514 24.93542746 16.68164062 27.94335938 C17.62587745 29.84591894 18.56926576 31.74889991 19.51171875 33.65234375 C20.18662605 35.01020241 20.18662605 35.01020241 20.87516785 36.39549255 C21.28592056 37.23298538 21.69667328 38.07047821 22.11987305 38.93334961 C22.48388718 39.67201767 22.84790131 40.41068573 23.22294617 41.17173767 C24 43 24 43 24 45 C8.82 45 -6.36 45 -22 45 C-19.74972213 38.24916638 -19.74972213 38.24916638 -18.26000977 35.27709961 C-17.92949112 34.61298569 -17.59897247 33.94887177 -17.25843811 33.26463318 C-16.9063176 32.56757767 -16.55419708 31.87052216 -16.19140625 31.15234375 C-15.8240184 30.41802628 -15.45663055 29.6837088 -15.07810974 28.92713928 C-14.30421553 27.38235853 -13.52838803 25.83854495 -12.75073242 24.2956543 C-11.56553725 21.9435277 -10.38678087 19.5882605 -9.20898438 17.23242188 C-8.45350211 15.72637327 -7.69765496 14.22050764 -6.94140625 12.71484375 C-6.59130997 12.01576401 -6.24121368 11.31668427 -5.88050842 10.59642029 C-4.05131033 6.97299874 -2.14423034 3.45122955 0 0 Z " fill="#FEFEFE" transform="translate(756,1000)"/>
<path d="M0 0 C10.56 0 21.12 0 32 0 C32 10.56 32 21.12 32 32 C21.44 32 10.88 32 0 32 C0 21.44 0 10.88 0 0 Z " fill="#50A060" transform="translate(1017,559)"/>
<path d="M0 0 C0.33 0 0.66 0 1 0 C1.33 2.31 1.66 4.62 2 7 C2.33 7 2.66 7 3 7 C3.0093457 7.85303711 3.01869141 8.70607422 3.02832031 9.58496094 C3.38307175 35.57919838 5.70358474 60.68037268 12 86 C11.34 86 10.68 86 10 86 C9.505 86.99 9.505 86.99 9 88 C5.52517531 73.75631211 2.68093484 59.57148607 1 45 C0.90211182 44.1963501 0.80422363 43.3927002 0.70336914 42.56469727 C-0.23971529 33.82478461 -0.11121816 25.09004115 -0.0625 16.3125 C-0.05747247 14.72461079 -0.05291179 13.13672004 -0.04882812 11.54882812 C-0.03792755 7.69917975 -0.02073283 3.84960747 0 0 Z " fill="#B2D1AA" transform="translate(743,554)"/>
<path d="M0 0 C0.99 0.495 0.99 0.495 2 1 C4.49387146 11.64968973 4.31335099 22.80132047 4.26074219 33.67211914 C4.24994279 36.32656307 4.26074508 38.98034102 4.2734375 41.63476562 C4.27930759 50.00698203 4.13003937 57.84330163 2 66 C1.67 66 1.34 66 1 66 C1.00523682 64.74678955 1.01047363 63.4935791 1.01586914 62.20239258 C1.03430311 57.44409939 1.04556856 52.68580918 1.05493164 47.92749023 C1.05988588 45.88842229 1.06665114 43.84935775 1.07543945 41.81030273 C1.13403709 27.83993746 0.80404254 13.94791717 0 0 Z " fill="#C3D9B8" transform="translate(1240,536)"/>
<path d="M0 0 C0.99 0 1.98 0 3 0 C2.11802889 9.80699223 0.65192228 19.37370527 -1.4375 29 C-1.64270264 29.95398682 -1.84790527 30.90797363 -2.05932617 31.89086914 C-3.36292436 37.73080551 -4.983833 43.36620864 -7 49 C-7.99 49 -8.98 49 -10 49 C-9.75765625 48.00484375 -9.5153125 47.0096875 -9.265625 45.984375 C-5.60209084 30.77498973 -2.3889133 15.46507028 0 0 Z " fill="#B2D1AB" transform="translate(1240,600)"/>
<path d="M0 0 C0 0.66 0 1.32 0 2 C-8.51448959 3.21909828 -16.98473477 3.11268452 -25.5625 3.0625 C-27.06314955 3.0574746 -28.56380072 3.05291353 -30.06445312 3.04882812 C-33.70966977 3.03790576 -37.35482422 3.02069856 -41 3 C-41 2.34 -41 1.68 -41 1 C-11.65458453 -0.19388403 -11.65458453 -0.19388403 0 0 Z " fill="#C1D8B6" transform="translate(1022,820)"/>
<path d="M0 0 C0.33 0 0.66 0 1 0 C1.33 2.31 1.66 4.62 2 7 C2.33 7 2.66 7 3 7 C3 19.54 3 32.08 3 45 C2.34 45 1.68 45 1 45 C-0.16104917 35.43279779 -0.11587919 25.9298192 -0.0625 16.3125 C-0.05747247 14.72461079 -0.05291179 13.13672004 -0.04882812 11.54882812 C-0.03792755 7.69917975 -0.02073283 3.84960747 0 0 Z " fill="#ABCDA5" transform="translate(743,554)"/>
<path d="M0 0 C8.58 0 17.16 0 26 0 C26.33 0.66 26.66 1.32 27 2 C23.82212459 3.0592918 21.57411057 3.11458939 18.23828125 3.09765625 C17.12001953 3.09443359 16.00175781 3.09121094 14.84960938 3.08789062 C13.68236328 3.07951172 12.51511719 3.07113281 11.3125 3.0625 C10.13365234 3.05798828 8.95480469 3.05347656 7.74023438 3.04882812 C4.82677211 3.03703273 1.91341137 3.0205727 -1 3 C-0.67 2.01 -0.34 1.02 0 0 Z " fill="#AECFA8" transform="translate(981,322)"/>
<path d="M0 0 C2.04436837 3.06655255 2.54390211 4.87109668 3.1875 8.4375 C3.36667969 9.38496094 3.54585937 10.33242188 3.73046875 11.30859375 C3.99170864 13.91720659 3.95654024 15.57271003 3 18 C2.34 18.33 1.68 18.66 1 19 C0.01 13.06 -0.98 7.12 -2 1 C-1.34 0.67 -0.68 0.34 0 0 Z " fill="#B4D2AC" transform="translate(1238,519)"/>
<path d="M0 0 C4.95 0.33 9.9 0.66 15 1 C15.33 1.99 15.66 2.98 16 4 C9.25766581 4.12910853 2.69613196 3.797837 -4 3 C-2.68 2.67 -1.36 2.34 0 2 C0 1.34 0 0.68 0 0 Z " fill="#AFCFA8" transform="translate(965,819)"/>
<path d="M0 0 C0.99 0.495 0.99 0.495 2 1 C2.41064453 2.85766602 2.41064453 2.85766602 2.6328125 5.25390625 C2.71660156 6.10791016 2.80039063 6.96191406 2.88671875 7.84179688 C2.96535156 8.73962891 3.04398438 9.63746094 3.125 10.5625 C3.21136719 11.46419922 3.29773437 12.36589844 3.38671875 13.29492188 C3.59951659 15.52929918 3.80354467 17.76413615 4 20 C3.01 20.33 2.02 20.66 1 21 C0.67 14.07 0.34 7.14 0 0 Z " fill="#BBD6B2" transform="translate(1240,536)"/>
<path d="M0 0 C2.04190981 0.14238837 4.08352045 0.28907028 6.125 0.4375 C7.83042969 0.55931641 7.83042969 0.55931641 9.5703125 0.68359375 C12.7540478 0.97730965 15.85510907 1.43124313 19 2 C19 2.66 19 3.32 19 4 C16.58239124 3.88573491 14.16652782 3.75900339 11.75 3.625 C11.06808594 3.5940625 10.38617187 3.563125 9.68359375 3.53125 C6.01260962 3.31740626 3.13748384 2.98922945 0 1 C0 0.67 0 0.34 0 0 Z " fill="#BFD7B4" transform="translate(946,817)"/>
<path d="M0 0 C0.66 0.66 1.32 1.32 2 2 C-3.445 2.495 -3.445 2.495 -9 3 C-9 2.34 -9 1.68 -9 1 C-10.65 1 -12.3 1 -14 1 C-14 0.67 -14 0.34 -14 0 C-12.41773035 -0.19627391 -10.83410729 -0.38165538 -9.25 -0.5625 C-8.36828125 -0.66691406 -7.4865625 -0.77132812 -6.578125 -0.87890625 C-4.07328032 -0.99655805 -2.34614066 -0.85175107 0 0 Z " fill="#A6CBA2" transform="translate(1031,819)"/>
<path d="M0 0 C0.66 0 1.32 0 2 0 C3.29243536 4.1196377 4.26252625 7.66831683 4 12 C3.34 12 2.68 12 2 12 C0.70756464 7.8803623 -0.26252625 4.33168317 0 0 Z " fill="#BED7B4" transform="translate(1234,508)"/>
<path d="M0 0 C0.33 0 0.66 0 1 0 C1.33 3.3 1.66 6.6 2 10 C1.01 10.33 0.02 10.66 -1 11 C-1.33 8.36 -1.66 5.72 -2 3 C-1.34 3 -0.68 3 0 3 C0 2.01 0 1.02 0 0 Z " fill="#A6CBA2" transform="translate(1240,527)"/>
<path d="M0 0 C0.66 0 1.32 0 2 0 C2.33 2.97 2.66 5.94 3 9 C2.34 9 1.68 9 1 9 C0.67 6.03 0.34 3.06 0 0 Z " fill="#BDD6B3" transform="translate(747,614)"/>
<path d="M0 0 C0.33 0.66 0.66 1.32 1 2 C1.66 2 2.32 2 3 2 C2.67 4.31 2.34 6.62 2 9 C1.01 8.67 0.02 8.34 -1 8 C-0.67 5.36 -0.34 2.72 0 0 Z " fill="#A9CDA4" transform="translate(750,511)"/>
<path d="M0 0 C2.64 0.33 5.28 0.66 8 1 C8 1.66 8 2.32 8 3 C2.25 3.125 2.25 3.125 0 2 C0 1.34 0 0.68 0 0 Z " fill="#BED7B4" transform="translate(933,814)"/>
<path d="M0 0 C0.33 0 0.66 0 1 0 C1.125 5.75 1.125 5.75 0 8 C-0.66 8 -1.32 8 -2 8 C-1.125 1.125 -1.125 1.125 0 0 Z " fill="#BBD5B1" transform="translate(1237,626)"/>
<path d="M0 0 C0.33 0.66 0.66 1.32 1 2 C-0.98 2.33 -2.96 2.66 -5 3 C-5 2.34 -5 1.68 -5 1 C-5.66 0.67 -6.32 0.34 -7 0 C-3.98968256 -0.93423645 -3.13349732 -1.04449911 0 0 Z " fill="#A8CCA3" transform="translate(1060,813)"/>
</svg>
